# File created by Blade
# Date/Time:  Wed Jan 21 17:57:21 2015
#---------------------------------------------------------
:version 1.10
:name HOM
:units
  mass 1.0
  length 1.000000
  angle deg
:documentation
     Acclaim Skeleton File
:root
   axis xyz
   order TX TY TZ RX RY RZ
   position 0.000000 0.000000 0.000000
   orientation 0 0 0
:bonedata
   begin
      id 1
      name Spine_dum
      direction 0.000000 1.000000 0.000000
      length 7.067664
      axis 0.0 0.0 0.0 xyz
   end
   begin
      id 2
      name LeftUpLeg_dum
      direction 1.000000 0.000000 0.000000
      length 4.013002
      axis 0.0 0.0 0.0 xyz
   end
   begin
      id 3
      name RightUpLeg_dum
      direction -1.000000 0.000000 0.000000
      length 4.013002
      axis 0.0 0.0 0.0 xyz
   end
   begin
      id 4
      name Spine
      direction 0.000000 1.000000 0.000000
      length 0.000000
      axis 0.0 0.0 0.0 xyz
      dof rx ry rz
   end
   begin
      id 5
      name Spine_dum1
      direction 0.000000 1.000000 0.000000
      length 15.039886
      axis 0.0 0.0 0.0 xyz
   end
   begin
      id 6
      name Spine_dum2
      direction 0.000000 1.000000 0.000000
      length 10.530368
      axis 0.0 0.0 0.0 xyz
   end
   begin
      id 7
      name Spine_dum3
      direction 0.000000 1.000000 0.000000
      length 10.530368
      axis 0.0 0.0 0.0 xyz
   end
   begin
      id 8
      name Head
      direction 0.000000 1.000000 0.000000
      length 4.527550
      axis 0.0 0.0 0.0 xyz
      dof rx ry rz
   end
   begin
      id 9
      name LeftShoulder
      direction 1.000000 0.000000 0.000000
      length 7.028855
      axis 0.0 0.0 -90.0 xyz
      dof rx ry rz
   end
   begin
      id 10
      name LeftArm
      direction 1.000000 0.000000 0.000000
      length 10.797705
      axis 0.0 0.0 -90.0 xyz
      dof rx ry rz
   end
   begin
      id 11
      name LeftForeArm
      direction 1.000000 0.000000 0.000000
      length 7.907442
      axis 0.0 0.0 -90.0 xyz
      dof ry rz rx
   end
   begin
      id 12
      name LeftHand
      direction 0.000000 0.000000 0.000000
      length 0.000000
      axis 0.0 0.0 -90.0 xyz
      dof rx ry rz
   end
   begin
      id 13
      name LeftHand_dum1
      direction 0.000000 0.000000 0.000000
      length 0.000000
      axis 0.0 0.0 -90.0 xyz
   end
   begin
      id 14
      name LeftHand_dum2
      direction 1.000000 0.000000 0.000000
      length 3.937000
      axis 0.0 0.0 -90.0 xyz
   end
   begin
      id 15
      name LeftHandThumb1
      direction 0.000000 0.000000 1.000000
      length 3.937000
      axis 0.0 0.0 -90.0 xyz
      dof rx rz ry
   end
   begin
      id 16
      name RightShoulder
      direction -1.000000 0.000000 0.000000
      length 7.028855
      axis 0.0 0.0 90.0 xyz
      dof rx ry rz
   end
   begin
      id 17
      name RightArm
      direction -1.000000 0.000000 0.000000
      length 10.797705
      axis 0.0 0.0 90.0 xyz
      dof rx ry rz
   end
   begin
      id 18
      name RightForeArm
      direction -1.000000 0.000000 0.000000
      length 7.907442
      axis 0.0 0.0 90.0 xyz
      dof ry rz rx
   end
   begin
      id 19
      name RightHand
      direction 0.000000 0.000000 0.000000
      length 0.000000
      axis 0.0 0.0 90.0 xyz
      dof rx ry rz
   end
   begin
      id 20
      name RightHand_dum1
      direction 0.000000 0.000000 0.000000
      length 0.000000
      axis 0.0 0.0 90.0 xyz
   end
   begin
      id 21
      name RightHand_dum2
      direction -1.000000 0.000000 0.000000
      length 3.937000
      axis 0.0 0.0 90.0 xyz
   end
   begin
      id 22
      name RightHandThumb1
      direction 0.000000 0.000000 1.000000
      length 3.937000
      axis 0.0 0.0 90.0 xyz
      dof rx rz ry
   end
   begin
      id 23
      name LeftUpLeg
      direction 0.000000 -1.000000 0.000000
      length 16.899758
      axis 0.0 0.0 0.0 xyz
      dof rx ry rz
   end
   begin
      id 24
      name LeftLeg
      direction 0.000000 -1.000000 0.000000
      length 17.389183
      axis 0.0 0.0 0.0 xyz
      dof rx ry rz
   end
   begin
      id 25
      name LeftFoot
      direction 0.000000 -0.258819 0.965926
      length 4.924528
      axis 15.0 0.0 0.0 xyz
      dof rx ry rz
   end
   begin
      id 26
      name LeftToeBase
      direction 0.000000 0.000000 1.000000
      length 2.952750
      axis 0.0 0.0 0.0 xyz
      dof rx ry rz
   end
   begin
      id 27
      name RightUpLeg
      direction 0.000000 -1.000000 0.000000
      length 16.899758
      axis 0.0 0.0 0.0 xyz
      dof rx ry rz
   end
   begin
      id 28
      name RightLeg
      direction 0.000000 -1.000000 0.000000
      length 17.389183
      axis 0.0 0.0 0.0 xyz
      dof rx ry rz
   end
   begin
      id 29
      name RightFoot
      direction 0.000000 -0.258819 0.965926
      length 4.924528
      axis 15.0 0.0 0.0 xyz
      dof rx ry rz
   end
   begin
      id 30
      name RightToeBase
      direction 0.000000 0.000000 1.000000
      length 2.952750
      axis 0.0 0.0 0.0 xyz
      dof rx ry rz
   end
:hierarchy
   begin
      root Spine_dum LeftUpLeg_dum RightUpLeg_dum
      Spine_dum Spine
      LeftUpLeg_dum LeftUpLeg
      RightUpLeg_dum RightUpLeg
      Spine Spine_dum1 Spine_dum2 Spine_dum3
      Spine_dum1 Head
      Spine_dum2 LeftShoulder
      Spine_dum3 RightShoulder
      LeftShoulder LeftArm
      LeftArm LeftForeArm
      LeftForeArm LeftHand
      LeftHand LeftHand_dum1 LeftHand_dum2
      LeftHand_dum1 LeftHandThumb1
      RightShoulder RightArm
      RightArm RightForeArm
      RightForeArm RightHand
      RightHand RightHand_dum1 RightHand_dum2
      RightHand_dum1 RightHandThumb1
      LeftUpLeg LeftLeg
      LeftLeg LeftFoot
      LeftFoot LeftToeBase
      RightUpLeg RightLeg
      RightLeg RightFoot
      RightFoot RightToeBase
   end

# File created by Blade
# Date/Time:  Wed Jan 21 17:57:11 2015
# Frame Rate: 120.000 fps
#------------------------------------------------------
:FULLY-SPECIFIED
:DEGREES
69
root 18.919096 35.764254 -23.576792 -176.680364 0.312403 -179.501990
Spine -12.517711 1.882584 -0.885301
Head 115.304002 0.833389 179.882720
LeftShoulder -8.726905 -27.164082 12.588614
LeftArm 5.663226 6.526815 -9.132910
LeftForeArm 1.705264 -0.000000 -1.590135
LeftHand -8.725163 -0.000000 -1.802327
LeftHandThumb1 -26.253704 0.000000 33.147579
RightShoulder -11.406808 -11.697979 -4.765742
RightArm 9.580108 37.781337 14.501281
RightForeArm -30.362487 0.000000 5.272430
RightHand -6.534491 -0.000000 -9.409605
RightHandThumb1 -24.326973 -0.000000 -32.862282
LeftUpLeg 5.030312 7.257112 0.889768
LeftLeg -4.583911 -0.000000 0.000000
LeftFoot -18.905962 26.118473 -15.598787
LeftToeBase 21.559528 -0.000000 -0.000000
RightUpLeg 4.505054 -6.733444 0.155643
RightLeg -2.740463 -0.000000 0.000000
RightFoot -20.888089 -23.595822 19.130747
RightToeBase 21.904762 -0.000000 -0.000000
70
root 18.925510 35.768274 -23.542824 -176.829689 0.310017 -179.520654
Spine -12.108871 1.913600 -0.894905
Head 114.699131 0.802297 179.837629
LeftShoulder -8.662746 -26.569135 12.079852
LeftArm 5.599493 6.778836 -9.934646
LeftForeArm 1.670875 -0.000000 -1.363624
LeftHand -8.555653 -0.000000 -1.198962
LeftHandThumb1 -26.253704 0.000000 33.147579
RightShoulder -11.508563 -12.111330 -4.453046
RightArm 10.227042 37.385163 15.723927
RightForeArm -29.932341 -0.000000 5.434640
RightHand -6.732824 -0.000000 -10.649673
RightHandThumb1 -24.326973 -0.000000 -32.862282
LeftUpLeg 5.076805 7.301862 0.895488
LeftLeg -4.497935 -0.000000 0.000000
LeftFoot -18.873790 26.084242 -15.608733
LeftToeBase 21.501092 -0.000000 -0.000000
RightUpLeg 4.554500 -6.665141 0.144911
RightLeg -2.651039 -0.000000 0.000000
RightFoot -20.917278 -23.672161 19.180872
RightToeBase 21.774730 -0.000000 -0.000000
71
root 18.934039 35.772287 -23.509105 -176.967168 0.313393 -179.528263
Spine -11.696871 1.922490 -0.876563
Head 114.179396 0.666480 179.932149
LeftShoulder -8.629778 -25.964563 11.519845
LeftArm 5.571010 7.206341 -10.692160
LeftForeArm 1.616305 -0.000000 -1.205444
LeftHand -8.409974 -0.000000 -0.830683
LeftHandThumb1 -26.253704 0.000000 33.147579
RightShoulder -11.607663 -12.605629 -4.129706
RightArm 10.974769 37.061821 17.022543
RightForeArm -29.317944 -0.000000 5.516052
RightHand -6.761733 0.000000 -11.783502
RightHandThumb1 -24.326973 -0.000000 -32.862282
LeftUpLeg 5.115948 7.336025 0.913266
LeftLeg -4.415350 -0.000000 0.000000
LeftFoot -18.849206 26.064752 -15.601101
LeftToeBase 21.502933 -0.000000 -0.000000
RightUpLeg 4.590568 -6.619761 0.145092
RightLeg -2.562709 -0.000000 0.000000
RightFoot -20.922849 -23.708987 19.059651
RightToeBase 21.902510 -0.000000 -0.000000
72
root 18.942574 35.775739 -23.477234 -177.122514 0.325890 -179.519700
Spine -11.251926 1.928097 -0.825134
Head 113.662719 0.540999 179.981381
LeftShoulder -8.620250 -25.338305 10.945178
LeftArm 5.509390 7.553056 -11.508062
LeftForeArm 1.604749 -0.000000 -0.954279
LeftHand -8.342764 -0.000000 -0.600284
LeftHandThumb1 -26.253704 0.000000 33.147579
RightShoulder -11.695243 -13.018740 -3.851097
RightArm 11.697214 36.677516 18.384509
RightForeArm -28.715679 -0.000000 5.741009
RightHand -6.815285 -0.000000 -12.514149
RightHandThumb1 -24.326973 -0.000000 -32.862282
LeftUpLeg 5.192629 7.380770 0.949593
LeftLeg -4.366441 -0.000000 0.000000
LeftFoot -18.822460 26.059586 -15.586742
LeftToeBase 21.519341 -0.000000 -0.000000
RightUpLeg 4.644775 -6.584828 0.163423
RightLeg -2.473505 -0.000000 0.000000
RightFoot -20.928717 -23.754756 19.033965
RightToeBase 21.896183 -0.000000 -0.000000
73
root 18.948841 35.780675 -23.438151 -177.267142 0.267038 -179.530413
Spine -10.789300 1.902363 -0.784791
Head 113.198213 0.320226 180.171013
LeftShoulder -8.576562 -24.634444 10.266962
LeftArm 5.553638 7.758519 -12.311534
LeftForeArm 1.569877 -0.000000 -0.848412
LeftHand -8.210338 -0.000000 -0.431976
LeftHandThumb1 -26.253704 0.000000 33.147579
RightShoulder -11.760219 -13.412885 -3.516440
RightArm 12.287030 36.423351 19.633086
RightForeArm -28.426686 -0.000000 6.023937
RightHand -6.888709 -0.000000 -12.775091
RightHandThumb1 -24.326973 -0.000000 -32.862282
LeftUpLeg 5.208198 7.337896 0.959066
LeftLeg -4.262064 -0.000000 0.000000
LeftFoot -18.808021 26.070470 -15.589667
LeftToeBase 21.578576 -0.000000 -0.000000
RightUpLeg 4.670198 -6.602106 0.162667
RightLeg -2.351390 -0.000000 0.000000
RightFoot -20.957188 -23.807880 19.048539
RightToeBase 21.942917 -0.000000 -0.000000
74
root 18.958344 35.785179 -23.399152 -177.425139 0.236853 -179.536194
Spine -10.301149 1.907352 -0.759993
Head 112.739434 0.260823 180.257617
LeftShoulder -8.457409 -24.132822 9.652332
LeftArm 5.370619 8.030710 -13.225589
LeftForeArm 1.643733 -0.000000 -0.635109
LeftHand -8.080414 -0.000000 -0.389705
LeftHandThumb1 -26.253704 0.000000 33.147579
RightShoulder -11.721281 -13.673297 -3.198140
RightArm 12.632360 36.034509 20.786864
RightForeArm -28.177123 0.000000 6.376507
RightHand -6.903331 -0.000000 -12.765542
RightHandThumb1 -24.326973 -0.000000 -32.862282
LeftUpLeg 5.256025 7.308812 0.981025
LeftLeg -4.183748 -0.000000 0.000000
LeftFoot -18.785645 26.084785 -15.608017
LeftToeBase 21.571501 -0.000000 -0.000000
RightUpLeg 4.697336 -6.601507 0.169641
RightLeg -2.211714 -0.000000 0.000000
RightFoot -20.954765 -23.826019 18.950781
RightToeBase 21.853780 -0.000000 -0.000000
75
root 18.967268 35.790345 -23.359877 -177.549648 0.191075 -179.539193
Spine -9.852864 1.904588 -0.717385
Head 112.286232 0.137364 180.384618
LeftShoulder -8.376182 -23.615493 8.999736
LeftArm 5.279451 8.288350 -14.151702
LeftForeArm 1.620476 -0.000000 -0.511084
LeftHand -8.095063 -0.000000 -0.469946
LeftHandThumb1 -26.253704 0.000000 33.147579
RightShoulder -11.763816 -14.034221 -2.828995
RightArm 13.116836 35.793564 22.005741
RightForeArm -27.957738 -0.000000 6.739594
RightHand -6.756765 -0.000000 -12.498499
RightHandThumb1 -24.326973 -0.000000 -32.862282
LeftUpLeg 5.263478 7.306727 1.003034
LeftLeg -4.096905 -0.000000 0.000000
LeftFoot -18.744581 26.065330 -15.591757
LeftToeBase 21.586849 -0.000000 -0.000000
RightUpLeg 4.689884 -6.618559 0.182465
RightLeg -2.069634 -0.000000 0.000000
RightFoot -20.989129 -23.854555 18.962911
RightToeBase 21.917949 -0.000000 -0.000000
76
root 18.976862 35.794658 -23.328402 -177.769499 -0.006439 -179.545510
Spine -9.277810 1.777691 -0.681912
Head 111.893771 0.170108 180.413039
LeftShoulder -8.303825 -23.205563 8.398104
LeftArm 5.168391 8.535017 -15.199449
LeftForeArm 1.682054 -0.000000 -0.389394
LeftHand -8.069244 -0.000000 -0.535227
LeftHandThumb1 -26.253704 0.000000 33.147579
RightShoulder -11.848071 -14.276592 -2.473585
RightArm 13.655007 35.379662 23.301441
RightForeArm -28.008787 -0.000000 7.119029
RightHand -7.159519 0.000000 -12.280788
RightHandThumb1 -24.326973 -0.000000 -32.862282
LeftUpLeg 5.345598 7.167375 1.040164
LeftLeg -3.986150 -0.000000 0.000000
LeftFoot -18.721283 26.029550 -15.573164
LeftToeBase 21.596772 -0.000000 -0.000000
RightUpLeg 4.834480 -6.839431 0.177732
RightLeg -1.977766 -0.000000 0.000000
RightFoot -21.008214 -23.817741 18.966120
RightToeBase 21.881852 -0.000000 -0.000000
77
root 18.982708 35.800318 -23.282410 -177.863960 -0.126127 -179.533594
Spine -8.816687 1.690999 -0.597973
Head 111.519719 -0.000290 180.622708
LeftShoulder -8.333898 -22.873864 7.762769
LeftArm 5.133366 8.765458 -16.241933
LeftForeArm 1.687834 -0.000000 -0.375497
LeftHand -7.982463 -0.000000 -0.712025
LeftHandThumb1 -26.253704 0.000000 33.147579
RightShoulder -11.918732 -14.630626 -2.130877
RightArm 14.292721 34.913876 24.629608
RightForeArm -27.850777 -0.000000 7.318878
RightHand -7.082547 0.000000 -12.319579
RightHandThumb1 -24.326973 -0.000000 -32.862282
LeftUpLeg 5.272975 7.066309 1.063324
LeftLeg -3.842681 -0.000000 0.000000
LeftFoot -18.719430 26.036430 -15.559533
LeftToeBase 21.605114 -0.000000 -0.000000
RightUpLeg 4.772423 -6.951414 0.196701
RightLeg -1.790524 -0.000000 0.000000
RightFoot -21.067750 -23.812978 19.054543
RightToeBase 21.961675 -0.000000 -0.000000
78
root 18.996604 35.805938 -23.235485 -177.967050 -0.129458 -179.534856
Spine -8.333767 1.737264 -0.592106
Head 111.192650 -0.033519 180.776957
LeftShoulder -8.375396 -22.379892 7.167752
LeftArm 5.189457 8.695660 -17.356384
LeftForeArm 1.756871 -0.000000 -0.372135
LeftHand -7.925896 -0.000000 -0.960324
LeftHandThumb1 -26.253704 0.000000 33.147579
RightShoulder -11.961229 -14.963114 -1.729532
RightArm 14.822733 34.476554 25.939667
RightForeArm -27.896498 0.000000 7.524072
RightHand -6.874464 -0.000000 -12.352388
RightHandThumb1 -24.326973 -0.000000 -32.862282
LeftUpLeg 5.221533 7.161555 1.091188
LeftLeg -3.697720 -0.000000 0.000000
LeftFoot -18.684226 25.961313 -15.531006
LeftToeBase 21.612453 -0.000000 -0.000000
RightUpLeg 4.690876 -6.914624 0.219452
RightLeg -1.574244 -0.000000 0.000000
RightFoot -21.105175 -23.800311 19.047599
RightToeBase 21.917395 -0.000000 -0.000000
79
root 19.010502 35.811418 -23.185318 -178.058916 -0.074779 -179.509007
Spine -7.859282 1.783968 -0.531840
Head 110.873147 -0.137641 180.968795
LeftShoulder -8.487926 -21.911206 6.597402
LeftArm 5.210407 8.560696 -18.546432
LeftForeArm 1.806249 -0.000000 -0.346259
LeftHand -7.868605 0.000000 -1.169575
LeftHandThumb1 -26.253704 0.000000 33.147579
RightShoulder -11.894525 -15.252665 -1.368851
RightArm 15.325526 33.779338 27.150712
RightForeArm -27.884633 0.000000 7.537180
RightHand -6.865582 -0.000000 -12.692926
RightHandThumb1 -24.326973 -0.000000 -32.862282
LeftUpLeg 5.188830 7.260600 1.140646
LeftLeg -3.609263 -0.000000 0.000000
LeftFoot -18.656928 25.944011 -15.523917
LeftToeBase 21.656529 -0.000000 -0.000000
RightUpLeg 4.565241 -6.756102 0.275380
RightLeg -1.318590 -0.000000 0.000000
RightFoot -21.194248 -23.869229 19.062413
RightToeBase 21.896505 -0.000000 -0.000000
80
root 19.025502 35.818088 -23.130623 -178.140269 -0.100484 -179.485259
Spine -7.376922 1.796571 -0.477971
Head 110.580432 -0.183786 181.140203
LeftShoulder -8.498106 -21.574105 5.969786
LeftArm 5.128544 8.534880 -19.717397
LeftForeArm 1.810682 -0.000000 -0.304581
LeftHand -7.812590 0.000000 -1.375577
LeftHandThumb1 -26.253704 0.000000 33.147579
RightShoulder -11.968571 -15.546741 -1.006256
RightArm 15.994668 33.100153 28.542993
RightForeArm -27.966245 0.000000 7.588909
RightHand -6.820540 -0.000000 -13.077671
RightHandThumb1 -24.326973 -0.000000 -32.862282
LeftUpLeg 5.108995 7.237572 1.186951
LeftLeg -3.479577 -0.000000 0.000000
LeftFoot -18.627627 25.959062 -15.511785
LeftToeBase 21.661257 -0.000000 -0.000000
RightUpLeg 4.414856 -6.729817 0.329421
RightLeg -1.033568 -0.000000 0.000000
RightFoot -21.261808 -23.896153 19.110337
RightToeBase 21.970501 -0.000000 -0.000000
81
root 19.038661 35.823887 -23.081101 -178.238288 -0.127854 -179.473094
Spine -6.879564 1.804192 -0.428191
Head 110.309119 -0.281237 181.383239
LeftShoulder -8.470181 -21.317272 5.334996
LeftArm 4.894336 8.433286 -20.898668
LeftForeArm 2.062986 -0.000000 -0.189630
LeftHand -7.607235 -0.000000 -1.722315
LeftHandThumb1 -26.253704 0.000000 33.147579
RightShoulder -11.910383 -15.653733 -0.725623
RightArm 16.334609 32.471529 29.876164
RightForeArm -28.185083 -0.000000 7.790085
RightHand -6.752899 -0.000000 -13.364329
RightHandThumb1 -24.326973 -0.000000 -32.862282
LeftUpLeg 5.042608 7.261892 1.224089
LeftLeg -3.329648 -0.000000 0.000000
LeftFoot -18.614974 25.921662 -15.499409
LeftToeBase 21.692908 -0.000000 -0.000000
RightUpLeg 4.294982 -6.812271 0.360846
RightLeg -0.761200 -0.000000 0.000000
RightFoot -21.310854 -23.827232 19.129103
RightToeBase 21.947265 -0.000000 -0.000000
